<?xml version="1.0" encoding="UTF-8"?>
<svg version="1.1" xmlns="http://www.w3.org/2000/svg" width="134" height="131">
<path d="M0 0 C44.22 0 88.44 0 134 0 C134 43.23 134 86.46 134 131 C89.78 131 45.56 131 0 131 C0 87.77 0 44.54 0 0 Z " fill="#101630" transform="translate(0,0)"/>
<path d="M0 0 C14.85 0 29.7 0 45 0 C45.495 1.485 45.495 1.485 46 3 C46.763125 3.20625 47.52625 3.4125 48.3125 3.625 C51.92203209 5.47173735 52.74729734 7.41904519 54.15478516 11.14550781 C57.64876751 22.94551985 56.25020131 37.14136736 56.29516602 49.34423828 C56.30681694 51.54938099 56.32746838 53.75449278 56.35668945 55.95947266 C56.39912533 59.17369393 56.41548505 62.38709697 56.42578125 65.6015625 C56.44328934 66.58694 56.46079742 67.5723175 56.47883606 68.58755493 C56.4570303 75.41129278 56.4570303 75.41129278 54.06713867 78.48974609 C53.38498291 78.98812988 52.70282715 79.48651367 52 80 C51.505 80.845625 51.01 81.69125 50.5 82.5625 C48.91102847 85.14457873 47.5116551 86.35172634 45 88 C44.01 88.66 43.02 89.32 42 90 C35.94581642 90.93608863 29.39936085 89.92867117 24 87 C23.67 86.01 23.34 85.02 23 84 C21.80375 84.103125 20.6075 84.20625 19.375 84.3125 C15.88440321 84.34355513 14.16275632 83.7614318 11.5 81.5 C10.675 80.675 9.85 79.85 9 79 C8.690625 79.639375 8.38125 80.27875 8.0625 80.9375 C7 83 7 83 6 84 C-3.4935659 84.79969869 -12.07313639 84.997893 -20 79 C-25.20926277 74.31384312 -27.68087747 69.64711458 -28.30078125 62.5625 C-28.30464844 61.386875 -28.30851562 60.21125 -28.3125 59 C-28.32925781 57.824375 -28.34601562 56.64875 -28.36328125 55.4375 C-27.75495666 49.68131037 -25.00103141 45.10632171 -21 41 C-15.00599776 37.07403912 -9.96636014 34.97537512 -2.796875 34.68359375 C-1.8171875 34.64169922 -0.8375 34.59980469 0.171875 34.55664062 C1.18765625 34.51732422 2.2034375 34.47800781 3.25 34.4375 C4.28125 34.39431641 5.3125 34.35113281 6.375 34.30664062 C8.9165387 34.20074318 11.45817196 34.09866557 14 34 C13.79375 33.401875 13.5875 32.80375 13.375 32.1875 C13 30 13 30 15 27 C13.81231727 28.18768273 12.65837037 29.40871112 11.5 30.625 C8.78377845 32.87223366 7.0735001 33.34458035 3.5625 33.0625 C-0.9426938 32.28363599 -4.20726251 30.50159282 -8 28 C-8 26.68 -8 25.36 -8 24 C-8.598125 23.95875 -9.19625 23.9175 -9.8125 23.875 C-12 23 -12 23 -14.0625 20.4375 C-15 17 -15 17 -14.2109375 14.9296875 C-11.98529613 11.22938804 -9.73121187 8.26134053 -6 6 C-3.97048465 4.71203834 -1.96498322 3.38442 0 2 C0 1.34 0 0.68 0 0 Z " fill="#0D1B36" transform="translate(72,0)"/>
<path d="M0 0 C1.19009674 0.00848969 2.38019348 0.01697937 3.60635376 0.02572632 C7.3973546 0.0592403 11.18620748 0.13452487 14.9765625 0.2109375 C17.55075048 0.24103928 20.12497188 0.2684147 22.69921875 0.29296875 C29.00072951 0.35902558 35.30099254 0.45935778 41.6015625 0.5859375 C42.0965625 2.0709375 42.0965625 2.0709375 42.6015625 3.5859375 C40.07587799 5.1013482 37.56040501 6.60847612 34.9765625 8.0234375 C31.05044571 10.60640907 28.71838555 14.00696298 27.6015625 18.5859375 C28.66677379 21.38923488 28.66677379 21.38923488 30.6015625 23.5859375 C31.5915625 23.9159375 32.5815625 24.2459375 33.6015625 24.5859375 C33.75625 25.5140625 33.75625 25.5140625 33.9140625 26.4609375 C34.44760466 28.84416854 34.44760466 28.84416854 37.0390625 30.2734375 C41.39947186 31.87990411 45.92819204 33.15703785 50.6015625 32.5859375 C52.29526106 30.64564602 52.29526106 30.64564602 53.6015625 28.5859375 C54.2615625 28.5859375 54.9215625 28.5859375 55.6015625 28.5859375 C55.6015625 27.9259375 55.6015625 27.2659375 55.6015625 26.5859375 C56.2615625 26.9159375 56.9215625 27.2459375 57.6015625 27.5859375 C57.6015625 28.2459375 57.6015625 28.9059375 57.6015625 29.5859375 C56.9415625 29.9159375 56.2815625 30.2459375 55.6015625 30.5859375 C55.1065625 32.0709375 55.1065625 32.0709375 54.6015625 33.5859375 C55.2615625 33.9159375 55.9215625 34.2459375 56.6015625 34.5859375 C54.98920717 36.19829283 53.20106257 35.75165555 50.97265625 35.796875 C50.01939453 35.82523438 49.06613281 35.85359375 48.08398438 35.8828125 C46.08154993 35.93418991 44.0789242 35.97865924 42.07617188 36.015625 C33.4089776 36.29427559 26.55021074 38.05860367 19.6015625 43.5859375 C17.33406524 46.58883928 15.78989801 49.02093098 14.6015625 52.5859375 C13.6115625 53.2459375 12.6215625 53.9059375 11.6015625 54.5859375 C10.9415625 55.5759375 10.2815625 56.5659375 9.6015625 57.5859375 C9.64796875 56.92207031 9.694375 56.25820313 9.7421875 55.57421875 C9.99441292 49.87689662 9.99441292 49.87689662 7.9765625 44.6484375 C5.3505743 42.36797407 2.78698016 40.96145876 -0.3984375 39.5859375 C-0.3984375 38.9259375 -0.3984375 38.2659375 -0.3984375 37.5859375 C-2.18977728 37.53201757 -3.98157649 37.49318179 -5.7734375 37.4609375 C-7.27003906 37.42613281 -7.27003906 37.42613281 -8.796875 37.390625 C-11.56105923 37.31376902 -11.56105923 37.31376902 -13.3984375 39.5859375 C-14.7184375 39.5859375 -16.0384375 39.5859375 -17.3984375 39.5859375 C-17.5015625 40.1428125 -17.6046875 40.6996875 -17.7109375 41.2734375 C-18.3984375 43.5859375 -18.3984375 43.5859375 -19.8671875 45.8046875 C-21.65620641 49.05413001 -22.10448221 51.73197028 -22.5859375 55.3984375 C-22.82376953 57.14060547 -22.82376953 57.14060547 -23.06640625 58.91796875 C-23.17597656 59.79839844 -23.28554688 60.67882813 -23.3984375 61.5859375 C-23.7284375 61.5859375 -24.0584375 61.5859375 -24.3984375 61.5859375 C-24.42351822 57.12427111 -24.44147377 52.66264419 -24.45336914 48.20092773 C-24.45833823 46.6892017 -24.46511582 45.1774803 -24.47387695 43.66577148 C-24.63818296 14.54494774 -24.63818296 14.54494774 -18.3984375 6.5859375 C-17.63023682 5.5647583 -16.86203613 4.5435791 -16.07055664 3.49145508 C-11.52239493 -0.98531214 -6.0153426 -0.16195335 0 0 Z " fill="#0D1A37" transform="translate(30.3984375,-0.5859375)"/>
<path d="M0 0 C1.11503906 0.00322266 2.23007813 0.00644531 3.37890625 0.00976562 C4.53777344 0.01814453 5.69664063 0.02652344 6.890625 0.03515625 C8.06496094 0.03966797 9.23929688 0.04417969 10.44921875 0.04882812 C13.34640572 0.06060531 16.24348954 0.07705299 19.140625 0.09765625 C18.4808327 1.43440467 17.81270121 2.76704143 17.140625 4.09765625 C16.82472412 4.72389893 16.50882324 5.3501416 16.18334961 5.99536133 C14.50498527 8.81265648 13.30277796 10.76875528 10.05126953 11.68896484 C7.5796167 11.86863717 5.17970194 11.87094991 2.703125 11.78515625 C-3.75268508 11.65034815 -7.6627815 11.73317034 -12.859375 16.09765625 C-15.22580926 19.10948167 -15.21862 22.29918521 -15.11328125 26.0703125 C-14.59767227 30.18725187 -12.91587225 33.10932012 -9.921875 35.91015625 C-5.8787575 38.23801178 -1.70722935 38.33830645 2.890625 38.66015625 C4.06109375 38.74394531 5.2315625 38.82773438 6.4375 38.9140625 C7.77554688 39.00494141 7.77554688 39.00494141 9.140625 39.09765625 C9.140625 36.12765625 9.140625 33.15765625 9.140625 30.09765625 C3.860625 30.09765625 -1.419375 30.09765625 -6.859375 30.09765625 C-0.984375 21.22265625 -0.984375 21.22265625 0.140625 20.09765625 C1.6293436 20.01096193 3.12207 19.99062131 4.61328125 20 C5.42289307 20.00249756 6.23250488 20.00499512 7.06665039 20.00756836 C8.10168701 20.01667236 9.13672363 20.02577637 10.203125 20.03515625 C13.4825 20.05578125 16.761875 20.07640625 20.140625 20.09765625 C20.140625 29.66765625 20.140625 39.23765625 20.140625 49.09765625 C16.01447464 48.06611866 14.2946429 46.81361611 11.140625 44.09765625 C10.83125 44.73703125 10.521875 45.37640625 10.203125 46.03515625 C9.140625 48.09765625 9.140625 48.09765625 8.140625 49.09765625 C-1.3529409 49.89735494 -9.93251139 50.09554925 -17.859375 44.09765625 C-23.06863777 39.41149937 -25.54025247 34.74477083 -26.16015625 27.66015625 C-26.16402344 26.48453125 -26.16789062 25.30890625 -26.171875 24.09765625 C-26.18863281 22.92203125 -26.20539062 21.74640625 -26.22265625 20.53515625 C-25.61433166 14.77896662 -22.86040641 10.20397796 -18.859375 6.09765625 C-12.55421224 1.96789097 -7.56027658 -0.03857284 0 0 Z " fill="#F3F5F7" transform="translate(69.859375,34.90234375)"/>
<path d="M0 0 C0.74435303 -0.01546875 1.48870605 -0.0309375 2.25561523 -0.046875 C5.35353983 0.069388 7.57273581 0.16777869 9.94580078 2.2800293 C11.15572815 3.79692227 12.29924835 5.36610835 13.4375 6.9375 C15.32549835 8.11393643 15.32549835 8.11393643 17.1875 8.625 C18.26 9.058125 19.3325 9.49125 20.4375 9.9375 C21.63504817 13.53014452 21.76844958 16.16467474 21.4375 19.9375 C19.625 22.0625 19.625 22.0625 17.4375 23.9375 C16.9425 24.783125 16.4475 25.62875 15.9375 26.5 C14.34852847 29.08207873 12.9491551 30.28922634 10.4375 31.9375 C9.4475 32.5975 8.4575 33.2575 7.4375 33.9375 C1.38331642 34.87358863 -5.16313915 33.86617117 -10.5625 30.9375 C-10.8925 29.9475 -11.2225 28.9575 -11.5625 27.9375 C-13.2125 27.9375 -14.8625 27.9375 -16.5625 27.9375 C-16.5625 21.3375 -16.5625 14.7375 -16.5625 7.9375 C-15.9025 8.5975 -15.2425 9.2575 -14.5625 9.9375 C-14.32660156 9.2878125 -14.09070313 8.638125 -13.84765625 7.96875 C-10.57162693 1.18642733 -7.14487751 0.03633373 0 0 Z " fill="#251E52" transform="translate(106.5625,56.0625)"/>
<path d="M0 0 C0.80566406 0.00257812 1.61132812 0.00515625 2.44140625 0.0078125 C3.64603516 0.00394531 3.64603516 0.00394531 4.875 0 C7.00390625 0.1328125 7.00390625 0.1328125 9.00390625 1.1328125 C9.00390625 1.7928125 9.00390625 2.4528125 9.00390625 3.1328125 C9.5865625 3.24496094 10.16921875 3.35710938 10.76953125 3.47265625 C14.65875115 4.62174395 17.53359627 6.94114479 20.00390625 10.1328125 C20.60588606 13.04848861 20.36679905 15.12598648 20.00390625 18.1328125 C20.99390625 17.4728125 21.98390625 16.8128125 23.00390625 16.1328125 C23.00390625 20.0928125 23.00390625 24.0528125 23.00390625 28.1328125 C22.67390625 28.1328125 22.34390625 28.1328125 22.00390625 28.1328125 C22.00390625 26.4828125 22.00390625 24.8328125 22.00390625 23.1328125 C21.34390625 23.1328125 20.68390625 23.1328125 20.00390625 23.1328125 C19.77703125 23.7515625 19.55015625 24.3703125 19.31640625 25.0078125 C17.61281965 27.76600033 16.00488194 28.08247101 13.00390625 29.1328125 C12.34390625 29.7928125 11.68390625 30.4528125 11.00390625 31.1328125 C5.64399826 32.13211738 1.34331769 32.13395214 -3.99609375 31.1328125 C-3.99609375 30.4728125 -3.99609375 29.8128125 -3.99609375 29.1328125 C-5.64609375 28.8028125 -7.29609375 28.4728125 -8.99609375 28.1328125 C-9.32609375 25.8228125 -9.65609375 23.5128125 -9.99609375 21.1328125 C-10.65609375 21.1328125 -11.31609375 21.1328125 -11.99609375 21.1328125 C-13.58722144 17.95055711 -13.33342161 15.67475502 -12.99609375 12.1328125 C-11.23967845 7.67253795 -9.532449 3.97082446 -5.24609375 1.6328125 C-4.50359375 1.4678125 -3.76109375 1.3028125 -2.99609375 1.1328125 C-1.99609375 0.1328125 -1.99609375 0.1328125 0 0 Z " fill="#282055" transform="translate(20.99609375,35.8671875)"/>
<path d="M0 0 C0.66 0 1.32 0 2 0 C2 0.66 2 1.32 2 2 C4.64 1.67 7.28 1.34 10 1 C10 2.32 10 3.64 10 5 C10.969375 4.979375 11.93875 4.95875 12.9375 4.9375 C16 5 16 5 17 6 C17.04063832 7.66617115 17.042721 9.33388095 17 11 C17.66 11.33 18.32 11.66 19 12 C17.92091981 19.41867628 14.65879075 24.08551866 9 29 C4.60412106 31.18105822 1.787094 31.28225732 -3 30 C-5.875 27.5 -5.875 27.5 -8 25 C-8.33 24.67 -8.66 24.34 -9 24 C-9.24427138 21.5165743 -9.38359759 19.03432707 -9.5234375 16.54296875 C-10.0685275 13.63433279 -11.21883983 12.30618535 -13 10 C-12.14928101 6.82913833 -10.82905734 4.743586 -9 2 C-7.08984375 1.5234375 -7.08984375 1.5234375 -4.9375 1.375 C-1.23149803 1.44379184 -1.23149803 1.44379184 0 0 Z " fill="#2F215B" transform="translate(57,89)"/>
<path d="M0 0 C2.64 0 5.28 0 8 0 C8.268125 1.093125 8.53625 2.18625 8.8125 3.3125 C9.9318694 6.78843656 10.35872684 7.78133055 13 10 C15.78215632 12.67911349 16.2255698 14.69329189 16.3125 18.4375 C16.08951998 23.88713172 15.12569444 26.73702576 11.4375 30.875 C8.75430179 32.94957032 6.93129029 33.30969792 3.5625 33.0625 C-0.9426938 32.28363599 -4.20726251 30.50159282 -8 28 C-8 26.68 -8 25.36 -8 24 C-8.598125 23.95875 -9.19625 23.9175 -9.8125 23.875 C-12 23 -12 23 -14.0625 20.4375 C-15 17 -15 17 -14.2109375 14.9296875 C-11.98529613 11.22938804 -9.73121187 8.26134053 -6 6 C-3.97048465 4.71203834 -1.96498322 3.38442 0 2 C0 1.34 0 0.68 0 0 Z " fill="#281F55" transform="translate(72,0)"/>
<path d="M0 0 C6.82423338 1.23416987 13.39367844 2.8915995 20 5 C19.35346673 11.95023264 17.13972752 18.38177303 15 25 C9.77065122 24.05426671 4.57666529 22.9820956 -0.5625 21.625 C-1.38878906 21.41101563 -2.21507813 21.19703125 -3.06640625 20.9765625 C-5 20 -5 20 -5.69677734 18.18212891 C-6.04397754 15.68351748 -5.70572311 14.43897278 -4.78515625 12.109375 C-4.37426758 11.04589844 -4.37426758 11.04589844 -3.95507812 9.9609375 C-3.66052734 9.23132813 -3.36597656 8.50171875 -3.0625 7.75 C-2.77181641 7.00492187 -2.48113281 6.25984375 -2.18164062 5.4921875 C-1.46426278 3.65758186 -0.73342561 1.82824935 0 0 Z " fill="#37206B" transform="translate(101,61)"/>
<path d="M0 0 C0.33 1.98 0.66 3.96 1 6 C6.94 6.33 12.88 6.66 19 7 C19 7.33 19 7.66 19 8 C18.42556152 7.98839844 17.85112305 7.97679687 17.25927734 7.96484375 C14.62978994 7.93517393 12.00441889 7.96708655 9.375 8 C8.47136719 7.98066406 7.56773438 7.96132813 6.63671875 7.94140625 C1.33196423 8.03846722 1.33196423 8.03846722 -2.98730469 10.84765625 C-4.87047122 13.27784692 -4.87047122 13.27784692 -7 17 C-2.05 17.33 2.9 17.66 8 18 C8 20.97 8 23.94 8 27 C-6.20331809 27.57667607 -6.20331809 27.57667607 -12 24 C-16.14100354 19.64104891 -17.37014233 16.1071782 -17.28125 10.0625 C-16.67509581 5.61736927 -14.02886927 2.88597076 -10.75 0.0625 C-6.81599462 -1.45745662 -4.12063521 -0.76825402 0 0 Z " fill="#16253B" transform="translate(71,47)"/>
<path d="M0 0 C3.58552881 1.63687185 4.79315055 2.68972583 7 6 C7.67577735 9.73455906 7.69852858 13.36218785 6.1953125 16.88671875 C4.50217226 19.297984 2.65836833 20.77489612 -0.125 21.7265625 C-4.35334719 22.45509529 -6.52266692 22.23432715 -10.4375 20.3125 C-14.06743954 17.0367009 -14.81109611 15.45725859 -15.4375 10.625 C-14.85694294 5.8146701 -13.38607407 4.38607407 -10 1 C-6.80876226 -0.59561887 -3.47254909 -0.3799142 0 0 Z " fill="#342167" transform="translate(28,41)"/>
<path d="M0 0 C0.99 0 1.98 0 3 0 C4.33891561 3.28942366 5.67017703 6.58189109 7 9.875 C7.3815625 10.81214844 7.763125 11.74929688 8.15625 12.71484375 C8.5171875 13.61074219 8.878125 14.50664062 9.25 15.4296875 C9.75273438 16.67081299 9.75273438 16.67081299 10.265625 17.93701172 C11 20 11 20 11 22 C2.71017896 22.43630637 -4.95969329 20.77967263 -13 19 C-12.41501018 15.9502861 -11.57639619 14.16203455 -9.53125 11.8359375 C-8.79841797 10.98902344 -8.79841797 10.98902344 -8.05078125 10.125 C-7.53902344 9.5475 -7.02726562 8.97 -6.5 8.375 C-2.87840054 4.44774499 -2.87840054 4.44774499 0 0 Z " fill="#BA97E5" transform="translate(74,4)"/>
<path d="M0 0 C8.0704358 0.61458229 16.01385781 1.69225335 24 3 C23.43982446 7.09507639 21.24908366 9.40884643 18.625 12.5 C15.37632897 16.31859832 15.37632897 16.31859832 12.3984375 20.34375 C11.93695313 20.8903125 11.47546875 21.436875 11 22 C10.01 22 9.02 22 8 22 C6.66108439 18.71057634 5.32982297 15.41810891 4 12.125 C3.6184375 11.18785156 3.236875 10.25070313 2.84375 9.28515625 C2.4828125 8.38925781 2.121875 7.49335937 1.75 6.5703125 C1.41484375 5.74289551 1.0796875 4.91547852 0.734375 4.06298828 C0 2 0 2 0 0 Z " fill="#B895E4" transform="translate(48,95)"/>
<path d="M0 0 C6.82423338 1.23416987 13.39367844 2.8915995 20 5 C19.35346673 11.95023264 17.13972752 18.38177303 15 25 C9.77065122 24.05426671 4.57666529 22.9820956 -0.5625 21.625 C-1.38878906 21.41101563 -2.21507813 21.19703125 -3.06640625 20.9765625 C-5 20 -5 20 -5.69677734 18.18212891 C-6.04397754 15.68351748 -5.70572311 14.43897278 -4.78515625 12.109375 C-4.37426758 11.04589844 -4.37426758 11.04589844 -3.95507812 9.9609375 C-3.66052734 9.23132813 -3.36597656 8.50171875 -3.0625 7.75 C-2.77181641 7.00492187 -2.48113281 6.25984375 -2.18164062 5.4921875 C-1.46426278 3.65758186 -0.73342561 1.82824935 0 0 Z M1 3 C0.3299166 5.12392506 -0.33596797 7.24917524 -1 9.375 C-1.37125 10.55835937 -1.7425 11.74171875 -2.125 12.9609375 C-3.09222606 15.79323439 -3.09222606 15.79323439 -3 18 C-1.08594633 18.67413211 0.83136026 19.3390332 2.75 20 C3.81734375 20.37125 4.8846875 20.7425 5.984375 21.125 C9.11692562 22.18577477 9.11692562 22.18577477 13 22 C13.67467562 20.25307205 14.33944156 18.50231475 15 16.75 C15.37125 15.77546875 15.7425 14.8009375 16.125 13.796875 C17.19905238 10.85216862 17.19905238 10.85216862 17 7 C15.08594633 6.32586789 13.16863974 5.6609668 11.25 5 C9.64898437 4.443125 9.64898437 4.443125 8.015625 3.875 C4.88307438 2.81422523 4.88307438 2.81422523 1 3 Z " fill="#C19FEC" transform="translate(101,61)"/>
<path d="M0 0 C2.64 0 5.28 0 8 0 C8.28875 1.0725 8.5775 2.145 8.875 3.25 C9.72820109 6.09400364 10.5636503 8.43508983 12 11 C11.34 11 10.68 11 10 11 C10 10.34 10 9.68 10 9 C9.34 9 8.68 9 8 9 C8 8.34 8 7.68 8 7 C7.01 6.67 6.02 6.34 5 6 C5 5.34 5 4.68 5 4 C4.01 4 3.02 4 2 4 C1.64228516 4.81984375 1.64228516 4.81984375 1.27734375 5.65625 C-0.3169837 8.58162147 -2.3004649 10.94538333 -4.4375 13.5 C-7.03625713 16.61679603 -9.59951375 19.72731135 -12 23 C-13.8125 20.5 -13.8125 20.5 -15 17 C-13.27005143 12.36059246 -10.23274678 8.56530108 -6 6 C-3.97048465 4.71203834 -1.96498322 3.38442 0 2 C0 1.34 0 0.68 0 0 Z " fill="#292056" transform="translate(72,0)"/>
<path d="M0 0 C3.58552881 1.63687185 4.79315055 2.68972583 7 6 C7.67577735 9.73455906 7.69852858 13.36218785 6.1953125 16.88671875 C4.50217226 19.297984 2.65836833 20.77489612 -0.125 21.7265625 C-4.35334719 22.45509529 -6.52266692 22.23432715 -10.4375 20.3125 C-14.06743954 17.0367009 -14.81109611 15.45725859 -15.4375 10.625 C-14.85694294 5.8146701 -13.38607407 4.38607407 -10 1 C-6.80876226 -0.59561887 -3.47254909 -0.3799142 0 0 Z M-9.875 4 C-12.81148802 8.14563015 -12.7152453 9.99328289 -12 15 C-10.66666667 17.66666667 -10.66666667 17.66666667 -8 19 C-4.23015837 19.67208242 -1.10596158 19.45372783 2.4375 18 C4.83595948 14.92997187 5.33838059 11.85753875 5 8 C3.23535939 5.14006522 2.00434303 3.50217151 -1 2 C-4.97357645 1.47018981 -6.54170381 1.68118526 -9.875 4 Z " fill="#C4A4F0" transform="translate(28,41)"/>
<path d="M0 0 C6.41282845 -0.40080178 11.1508299 0.38710542 17 3 C17.78375 3.226875 18.5675 3.45375 19.375 3.6875 C22.22976777 5.99327397 22.58916144 9.4775645 23 13 C22.625 16 22.625 16 22 18 C21.34 18 20.68 18 20 18 C19.9071875 19.1446875 19.9071875 19.1446875 19.8125 20.3125 C18.74425685 23.84591964 17.14865242 24.287575 14 26 C15.56752937 19.63583076 17.14264467 13.28643343 19 7 C18.39414063 6.89042969 17.78828125 6.78085938 17.1640625 6.66796875 C10.96856205 5.49558943 5.00539533 3.91661553 -1 2 C-0.67 1.34 -0.34 0.68 0 0 Z " fill="#372468" transform="translate(102,59)"/>
<path d="M0 0 C0.66 0 1.32 0 2 0 C2.83739781 2.1234016 3.66980283 4.2487728 4.5 6.375 C4.9640625 7.55835938 5.428125 8.74171875 5.90625 9.9609375 C7 13 7 13 7 15 C1.54230189 15.11138159 -3.61509359 14.91657981 -9 14 C-7.65686815 10.21908383 -5.97035316 7.34348084 -3.5 4.1875 C-2.8915625 3.39730469 -2.283125 2.60710938 -1.65625 1.79296875 C-0.83640625 0.90544922 -0.83640625 0.90544922 0 0 Z " fill="#562D8A" transform="translate(74,8)"/>
<path d="M0 0 C5.36891879 0.49869404 10.69235173 1.02227532 16 2 C14.51460715 7.28139679 10.91327696 11.28054101 7 15 C6.34 15 5.68 15 5 15 C4.16260219 12.8765984 3.33019717 10.7512272 2.5 8.625 C1.80390625 6.84996094 1.80390625 6.84996094 1.09375 5.0390625 C0 2 0 2 0 0 Z " fill="#532B89" transform="translate(52,98)"/>
<path d="M0 0 C3.80470451 0.7133821 5.41196019 1.67868421 8 4.5625 C9.1659741 8.57053597 9.43240501 10.61532711 7.6875 14.4375 C6 16.5625 6 16.5625 4 17.5625 C-3.0521327 18.13122038 -3.0521327 18.13122038 -6.5 16.0625 C-8.59158203 12.57652996 -8.8876276 9.46034294 -8 5.5625 C-5.55871269 2.11597674 -4.17033126 0.78193711 0 0 Z M-7 6.5625 C-6.03414688 10.88674371 -6.03414688 10.88674371 -3 13.8125 C-2.34 14.06 -1.68 14.3075 -1 14.5625 C-0.34 15.2225 0.32 15.8825 1 16.5625 C1.99 15.9025 2.98 15.2425 4 14.5625 C4 13.9025 4 13.2425 4 12.5625 C5.32 12.2325 6.64 11.9025 8 11.5625 C7.35330586 10.21936601 6.68096422 8.88858822 6 7.5625 C5.54625 6.655 5.0925 5.7475 4.625 4.8125 C4.08875 4.07 3.5525 3.3275 3 2.5625 C-1.71906188 2.5625 -3.27037031 3.85004204 -7 6.5625 Z " fill="#502D84" transform="translate(24,42.4375)"/>
<path d="M0 0 C1 2 1 2 0.00390625 5.15234375 C-0.46912505 6.41686967 -0.94994137 7.67850397 -1.4375 8.9375 C-3.37394629 13.8183707 -3.37394629 13.8183707 -4 19 C1.61 20.65 7.22 22.3 13 24 C7.63099762 26.68450119 4.41292724 25.60323181 -1.25 24.1875 C-4.38961286 22.83175808 -5.27302699 21.90514118 -7 19 C-7.29296875 16.421875 -7.29296875 16.421875 -7.1875 13.75 C-7.16042969 12.85796875 -7.13335937 11.9659375 -7.10546875 11.046875 C-7.07066406 10.37140625 -7.03585938 9.6959375 -7 9 C-6.34 9 -5.68 9 -5 9 C-4.731875 8.071875 -4.46375 7.14375 -4.1875 6.1875 C-3.08851629 3.23759634 -2.37581439 1.94384814 0 0 Z " fill="#352263" transform="translate(100,61)"/>
<path d="M0 0 C1.984375 1.26953125 1.984375 1.26953125 4 3 C4.25 6.6875 4.25 6.6875 4 10 C4.99 9.34 5.98 8.68 7 8 C7 11.96 7 15.92 7 20 C6.67 20 6.34 20 6 20 C6 18.35 6 16.7 6 15 C5.34 15 4.68 15 4 15 C3.773125 15.61875 3.54625 16.2375 3.3125 16.875 C1.6089134 19.63318783 0.00097569 19.94965851 -3 21 C-3.66 21.66 -4.32 22.32 -5 23 C-7.65537372 23.56520003 -10.29144713 23.73788198 -13 24 C-11 22 -11 22 -7.625 20.75 C-3.50510512 18.97818717 -1.82289238 17.22911032 0 13 C0.31627911 8.64468112 0.23276604 4.35789753 0 0 Z " fill="#221E4E" transform="translate(37,44)"/>
<path d="M0 0 C0 0.99 0 1.98 0 3 C-0.495 2.835 -0.99 2.67 -1.5 2.5 C-6.69328894 1.46134221 -10.46446434 1.01987086 -14.9375 3.875 C-17.60446101 6.62277801 -17.95824498 7.446746 -18.25 11.3125 C-17.92108564 16.16398676 -16.3827353 18.6172647 -13 22 C-13.66 22.33 -14.32 22.66 -15 23 C-17 21.625 -17 21.625 -19 20 C-19 19.34 -19 18.68 -19 18 C-19.99 17.67 -20.98 17.34 -22 17 C-23.04225562 13.87323315 -23.30523748 11.7561277 -22.05859375 8.66796875 C-19.9980332 4.86054494 -18.65907971 2.43938647 -15 0 C-9.67163614 -1.14925495 -5.30853243 -0.83818933 0 0 Z " fill="#3D286A" transform="translate(32,40)"/>
<path d="M0 0 C0.66 0.33 1.32 0.66 2 1 C2 1.66 2 2.32 2 3 C1.01 3.495 1.01 3.495 0 4 C-0.33 4.99 -0.66 5.98 -1 7 C-0.34 7.33 0.32 7.66 1 8 C-0.77490546 9.77490546 -3.37784902 9.23499973 -5.78515625 9.31640625 C-7.53989258 9.37924805 -7.53989258 9.37924805 -9.33007812 9.44335938 C-10.56177734 9.48267578 -11.79347656 9.52199219 -13.0625 9.5625 C-14.91584961 9.62727539 -14.91584961 9.62727539 -16.80664062 9.69335938 C-19.87097335 9.79984198 -22.93539073 9.90185424 -26 10 C-24.625 8.5 -24.625 8.5 -23 7 C-22.34 7 -21.68 7 -21 7 C-20.67 6.01 -20.34 5.02 -20 4 C-12.575 4.99 -12.575 4.99 -5 6 C-4.01 4.68 -3.02 3.36 -2 2 C-1.34 2 -0.68 2 0 2 C0 1.34 0 0.68 0 0 Z " fill="#1A1D3F" transform="translate(86,26)"/>
<path d="M0 0 C5.65020618 0.60108576 10.66164461 2.07528683 16 4 C15.32584613 9.2584002 13.75734451 14.02638346 12 19 C9.69 18.67 7.38 18.34 5 18 C7.33214148 16.79371992 9.49642139 15.8345262 12 15 C11.979375 14.05125 11.95875 13.1025 11.9375 12.125 C12 9 12 9 13 7 C8.61554717 5.0910499 8.61554717 5.0910499 4 4 C1.78228936 4.85790183 1.78228936 4.85790183 0 6 C-1 3 -1 3 0 0 Z " fill="#472779" transform="translate(102,64)"/>
<path d="M0 0 C0.80566406 0.00257812 1.61132812 0.00515625 2.44140625 0.0078125 C3.64603516 0.00394531 3.64603516 0.00394531 4.875 0 C7.00390625 0.1328125 7.00390625 0.1328125 9.00390625 1.1328125 C9.00390625 1.7928125 9.00390625 2.4528125 9.00390625 3.1328125 C5.70390625 2.8028125 2.40390625 2.4728125 -0.99609375 2.1328125 C-0.99609375 2.7928125 -0.99609375 3.4528125 -0.99609375 4.1328125 C-1.90359375 4.4628125 -2.81109375 4.7928125 -3.74609375 5.1328125 C-7.96539198 7.72930372 -9.47344035 10.48609436 -10.99609375 15.1328125 C-11.3341198 18.46857597 -11.3341198 18.46857597 -10.99609375 21.1328125 C-12.99609375 19.1328125 -12.99609375 19.1328125 -13.43359375 16.0703125 C-12.86465429 10.94985732 -11.11843623 7.21978111 -7.99609375 3.1328125 C-5.24609375 1.6328125 -5.24609375 1.6328125 -2.99609375 1.1328125 C-1.99609375 0.1328125 -1.99609375 0.1328125 0 0 Z " fill="#241E51" transform="translate(20.99609375,35.8671875)"/>
<path d="M0 0 C0.66 0 1.32 0 2 0 C0.40103806 3.6646479 -1.88083423 6.44375586 -4.4375 9.5 C-7.03625713 12.61679603 -9.59951375 15.72731135 -12 19 C-12.66 17.35 -13.32 15.7 -14 14 C-13.01 13.34 -12.02 12.68 -11 12 C-10.5875 11.05125 -10.175 10.1025 -9.75 9.125 C-7.429463 4.98118393 -5.16684239 4.16058494 -1 2 C-0.67 1.34 -0.34 0.68 0 0 Z " fill="#3F2B6B" transform="translate(72,4)"/>
<path d="M0 0 C2.84179688 0.35522461 2.84179688 0.35522461 5.68359375 0.71044922 C6.83021484 0.85377686 6.83021484 0.85377686 8 1 C12.25 1.53125 12.25 1.53125 16.5 2.0625 C17.22703125 2.15337891 17.9540625 2.24425781 18.703125 2.33789062 C20.46875 2.55859375 22.234375 2.77929688 24 3 C23.01 3.33 22.02 3.66 21 4 C20.67 4.99 20.34 5.98 20 7 C13.69732561 6.63223832 8.66748157 5.83374078 3 3 C3 2.34 3 1.68 3 1 C2.01 0.67 1.02 0.34 0 0 Z " fill="#422D70" transform="translate(61,23)"/>
<path d="M0 0 C1.485 0.99 1.485 0.99 3 2 C3 4.03138521 2.99589313 6.06344394 2.9296875 8.09375 C2.85412266 10.09821393 2.85412266 10.09821393 4.125 11.9375 C6.68102669 13.38591512 9.10340247 13.67815583 12 14 C12.33 14.99 12.66 15.98 13 17 C7.71442634 17.50338797 5.09049661 16.34676996 1 13 C-1.58359065 9.59435778 -1.23078395 6.15411114 -1 2 C-0.67 1.34 -0.34 0.68 0 0 Z " fill="#B896E3" transform="translate(14,46)"/>
<path d="M0 0 C0.66 0 1.32 0 2 0 C2.66015625 1.75390625 2.66015625 1.75390625 3 4 C0.31394133 9.25714984 -4.16344434 13.70702593 -9 17 C-11.875 17.3125 -11.875 17.3125 -14 17 C-13.67 16.34 -13.34 15.68 -13 15 C-12.34 15 -11.68 15 -11 15 C-11 14.34 -11 13.68 -11 13 C-10.45730469 12.81566406 -9.91460937 12.63132812 -9.35546875 12.44140625 C-5.92262251 11.04971183 -3.57992107 10.09750534 -1.80078125 6.73046875 C-1.07971048 4.49690807 -0.47148374 2.29848323 0 0 Z " fill="#261E51" transform="translate(72,103)"/>
<path d="M0 0 C-1.45044271 4.10958767 -3.51110752 7.43258745 -6 11 C-4.3603125 10.938125 -4.3603125 10.938125 -2.6875 10.875 C1 11 1 11 4 13 C2.41676312 13.027193 0.83338938 13.04648306 -0.75 13.0625 C-2.07257813 13.07990234 -2.07257813 13.07990234 -3.421875 13.09765625 C-5.7818838 13.00826198 -7.74498524 12.66912821 -10 12 C-9.40716913 8.39428893 -7.97258223 6.45570562 -5.5625 3.75 C-4.94503906 3.04359375 -4.32757813 2.3371875 -3.69140625 1.609375 C-2 0 -2 0 0 0 Z " fill="#C2A1EC" transform="translate(71,11)"/>
<path d="M0 0 C0.99 0.33 1.98 0.66 3 1 C2.01 1.33 1.02 1.66 0 2 C-0.72455635 3.64232772 -1.37774395 5.31624835 -2 7 C-3.051875 8.60875 -3.051875 8.60875 -4.125 10.25 C-6.91671859 14.99280816 -6.68331435 20.0149952 -5.48046875 25.26953125 C-5.32191406 25.84058594 -5.16335937 26.41164063 -5 27 C-5.99 27 -6.98 27 -8 27 C-8 20.4 -8 13.8 -8 7 C-7.34 7.66 -6.68 8.32 -6 9 C-4.02 6.03 -2.04 3.06 0 0 Z " fill="#1C1C43" transform="translate(98,57)"/>
<path d="M0 0 C4 0 4 0 5.51953125 1.42578125 C5.94621094 2.04839844 6.37289063 2.67101563 6.8125 3.3125 C7.25207031 3.92738281 7.69164062 4.54226562 8.14453125 5.17578125 C9 7 9 7 8 10 C7.01 10 6.02 10 5 10 C5 10.66 5 11.32 5 12 C3.02 12.99 3.02 12.99 1 14 C1 13.01 1 12.02 1 11 C1.99 11 2.98 11 4 11 C4 8.69 4 6.38 4 4 C2.02 3.34 0.04 2.68 -2 2 C-1.34 1.34 -0.68 0.68 0 0 Z M-4 2 C-3.34 2 -2.68 2 -2 2 C-2.33 4.64 -2.66 7.28 -3 10 C-5.13562754 7.86437246 -5.63318342 6.93453261 -6 4 C-5.34 3.34 -4.68 2.68 -4 2 Z " fill="#3F2374" transform="translate(23,45)"/>
<path d="M0 0 C0.66 0 1.32 0 2 0 C2 0.66 2 1.32 2 2 C4.64 1.67 7.28 1.34 10 1 C10 2.32 10 3.64 10 5 C10.969375 4.979375 11.93875 4.95875 12.9375 4.9375 C16 5 16 5 17 6 C17.04063832 7.66617115 17.042721 9.33388095 17 11 C17.66 11.33 18.32 11.66 19 12 C18.34 12.66 17.68 13.32 17 14 C16.690625 13.13375 16.690625 13.13375 16.375 12.25 C14.51518335 9.20666366 11.95455813 7.92688574 9 6 C9 5.34 9 4.68 9 4 C6.03 3.67 3.06 3.34 0 3 C0 2.01 0 1.02 0 0 Z " fill="#251E51" transform="translate(57,89)"/>
<path d="M0 0 C2.57833439 2.57833439 3.3761471 5.10325781 4.6875 8.5 C5.14511719 9.6653125 5.60273437 10.830625 6.07421875 12.03125 C7 15 7 15 6 17 C3.65765733 16.06306293 2.27477723 15.41979854 0.875 13.28125 C-0.20194057 10.47351208 -0.1963943 8.24856072 -0.125 5.25 C-0.09792969 3.77273437 -0.09792969 3.77273437 -0.0703125 2.265625 C-0.04710937 1.51796875 -0.02390625 0.7703125 0 0 Z " fill="#3E266E" transform="translate(48,97)"/>
<path d="M0 0 C1 1 1 1 1.125 3.5 C1 6 1 6 0 7 C-3 7.125 -3 7.125 -6 7 C-7 6 -7 6 -7.0625 3.4375 C-7.041875 2.633125 -7.02125 1.82875 -7 1 C-4.51588385 -0.24205807 -2.74800896 -0.14092354 0 0 Z " fill="#291F5A" transform="translate(111,70)"/>
<path d="M0 0 C0.66 0 1.32 0 2 0 C2 0.66 2 1.32 2 2 C2.66 2 3.32 2 4 2 C4 2.66 4 3.32 4 4 C4.66 4 5.32 4 6 4 C7.97387813 8.76052962 8.0070238 11.96488101 7 17 C5.02114001 14.03171001 3.74135003 11.22552946 2.375 7.9375 C1.92898437 6.87402344 1.48296875 5.81054688 1.0234375 4.71484375 C0 2 0 2 0 0 Z " fill="#3C256C" transform="translate(78,7)"/>
<path d="M0 0 C0.99 0.33 1.98 0.66 3 1 C2.360625 1.928125 1.72125 2.85625 1.0625 3.8125 C-1.08622093 6.84219943 -1.08622093 6.84219943 -2 10 C-2.99 10.66 -3.98 11.32 -5 12 C-5.66 12.99 -6.32 13.98 -7 15 C-7 12.03 -7 9.06 -7 6 C-6.01 5.67 -5.02 5.34 -4 5 C-3.67 4.01 -3.34 3.02 -3 2 C-2.01 1.34 -1.02 0.68 0 0 Z " fill="#1D213F" transform="translate(47,42)"/>
<path d="M0 0 C3.875 2.75 3.875 2.75 5 5 C5.375 8.375 5.375 8.375 5 12 C2.5 14.4375 2.5 14.4375 0 16 C0.185625 14.845 0.37125 13.69 0.5625 12.5 C1.1235724 8.13610352 0.69632186 4.33266935 0 0 Z " fill="#201C49" transform="translate(123,64)"/>
<path d="M0 0 C6.59922601 -0.22755952 11.35084394 0.23389596 17 4 C18.43554259 7.52360453 18.07207703 11.25199465 18 15 C16.11608215 11.73454239 15.50712033 8.71888239 15 5 C14.01 4.67 13.02 4.34 12 4 C11.34 3.67 10.68 3.34 10 3 C6.55605093 2.32618388 3.52577208 2 0 2 C0 1.34 0 0.68 0 0 Z " fill="#30205E" transform="translate(20,38)"/>
<path d="M0 0 C0.66 0 1.32 0 2 0 C0.51804579 3.21458724 -1.29740509 5.93335896 -3.4375 8.75 C-4.03433594 9.54921875 -4.63117187 10.3484375 -5.24609375 11.171875 C-5.82488281 11.77515625 -6.40367188 12.3784375 -7 13 C-7.99 13 -8.98 13 -10 13 C-10 11.35 -10 9.7 -10 8 C-9.10667969 7.86271484 -9.10667969 7.86271484 -8.1953125 7.72265625 C-5.47437268 6.82697321 -4.60875366 5.68411796 -2.875 3.4375 C-1.3671875 1.49609375 -1.3671875 1.49609375 0 0 Z " fill="#C1A0EC" transform="translate(66,104)"/>
<path d="M0 0 C1.07765625 0.11085938 2.1553125 0.22171875 3.265625 0.3359375 C4.08546875 0.43132812 4.9053125 0.52671875 5.75 0.625 C5.75 1.285 5.75 1.945 5.75 2.625 C6.74 2.295 7.73 1.965 8.75 1.625 C9.74 2.615 10.73 3.605 11.75 4.625 C9.20813394 4.31405914 6.66651402 4.00129464 4.125 3.6875 C3.41214844 3.60048828 2.69929688 3.51347656 1.96484375 3.42382812 C-2.12591961 2.91717395 -6.18842635 2.3360957 -10.25 1.625 C-6.69181064 -0.63773207 -4.12452049 -0.44831744 0 0 Z " fill="#4E307C" transform="translate(58.25,93.375)"/>
<path d="M0 0 C0.66 1.32 1.32 2.64 2 4 C1.01 4 0.02 4 -1 4 C-1.268125 5.093125 -1.53625 6.18625 -1.8125 7.3125 C-3.39736638 12.23392719 -3.39736638 12.23392719 -6 14 C-9.1875 15.1875 -9.1875 15.1875 -12 16 C-8 10.66666667 -4 5.33333333 0 0 Z " fill="#4E337B" transform="translate(72,99)"/>
<path d="M0 0 C0.99 0.33 1.98 0.66 3 1 C2.32584613 6.2584002 0.75734451 11.02638346 -1 16 C-3.31 15.67 -5.62 15.34 -8 15 C-5.66785852 13.79371992 -3.50357861 12.8345262 -1 12 C-1.0309375 10.700625 -1.0309375 10.700625 -1.0625 9.375 C-1.00261044 6.14096352 -0.60419067 3.17200103 0 0 Z " fill="#573389" transform="translate(115,67)"/>
<path d="M0 0 C0.66 0.33 1.32 0.66 2 1 C2.4152799 5.15279896 2.41253023 8.04848801 -0.0625 11.4375 C-3 14 -3 14 -6.8125 14.375 C-7.864375 14.25125 -8.91625 14.1275 -10 14 C-7 12 -7 12 -4.4375 10.9375 C-0.77913087 8.02956557 -0.62836911 4.4736129 0 0 Z " fill="#C7A6F2" transform="translate(33,48)"/>
<path d="M0 0 C2.9375 0.375 2.9375 0.375 6 1 C6.33 1.66 6.66 2.32 7 3 C5.02 3 3.04 3 1 3 C0.87882812 3.63808594 0.75765625 4.27617188 0.6328125 4.93359375 C0.46523437 5.75988281 0.29765625 6.58617188 0.125 7.4375 C-0.03742188 8.26121094 -0.19984375 9.08492187 -0.3671875 9.93359375 C-0.57601562 10.61550781 -0.78484375 11.29742187 -1 12 C-1.99 12.495 -1.99 12.495 -3 13 C-3.38281159 7.76824163 -2.21854707 4.62197306 0 0 Z " fill="#C4A2EF" transform="translate(101,61)"/>
<path d="M0 0 C0.33 0 0.66 0 1 0 C1.375 2.6875 1.375 2.6875 1 6 C-1.69737498 9.18151921 -3.24226622 10.77420981 -7.40234375 11.30859375 C-9.62463931 11.31210449 -11.78952084 11.22104792 -14 11 C-13.67 10.34 -13.34 9.68 -13 9 C-11.9275 8.87625 -10.855 8.7525 -9.75 8.625 C-5.58395477 7.93065913 -3.91407974 6.99978797 -1 4 C-0.13034494 1.87053397 -0.13034494 1.87053397 0 0 Z " fill="#2D1F58" transform="translate(122,77)"/>
<path d="M0 0 C1.32 0.33 2.64 0.66 4 1 C3.45700313 4.80097811 1.92723228 6.57457897 -1 9 C-3.25 9.75 -3.25 9.75 -5 10 C-4.67 9.01 -4.34 8.02 -4 7 C-3.34 7 -2.68 7 -2 7 C-1.34 4.69 -0.68 2.38 0 0 Z " fill="#502786" transform="translate(72,11)"/>
<path d="M0 0 C0.99 0 1.98 0 3 0 C4.76961889 4.71898372 5.66621509 8.99322638 6 14 C5.34 14.66 4.68 15.32 4 16 C3.01 15.67 2.02 15.34 1 15 C1.33 14.34 1.66 13.68 2 13 C2.19758231 10.92435324 2.19758231 10.92435324 2.1875 8.625 C2.20167969 7.85414062 2.21585938 7.08328125 2.23046875 6.2890625 C1.97801607 3.78165112 1.25193467 2.16738098 0 0 Z " fill="#452E73" transform="translate(32,43)"/>
<path d="M0 0 C1 2 1 2 0.00390625 5.2578125 C-0.46889984 6.5497052 -0.94971969 7.83868638 -1.4375 9.125 C-1.68048828 9.78371094 -1.92347656 10.44242188 -2.17382812 11.12109375 C-2.77578321 12.74991338 -3.38702412 14.37529575 -4 16 C-4.66 15.67 -5.32 15.34 -6 15 C-4.66958425 4.84682713 -4.66958425 4.84682713 -1.875 1.3125 C-1.25625 0.879375 -0.6375 0.44625 0 0 Z " fill="#492D77" transform="translate(100,61)"/>
<path d="M0 0 C0.33 0 0.66 0 1 0 C1 3.96 1 7.92 1 12 C0.67 12 0.34 12 0 12 C0 10.35 0 8.7 0 7 C-0.66 7 -1.32 7 -2 7 C-2.28875 7.639375 -2.5775 8.27875 -2.875 8.9375 C-4 11 -4 11 -6 12 C-2.28571429 2.28571429 -2.28571429 2.28571429 0 0 Z " fill="#353856" transform="translate(43,52)"/>
<path d="M0 0 C3.63195497 -0.33785628 5.58823227 -0.22875985 8.8125 1.5625 C11.59037881 4.65785068 11.76435605 6.91550495 12 11 C9.58615891 8.82754302 8.14329712 7.44012686 7.125 4.3125 C6.568125 3.1678125 6.568125 3.1678125 6 2 C2.94727535 1.10169161 2.94727535 1.10169161 0 1 C0 0.67 0 0.34 0 0 Z " fill="#59378A" transform="translate(21,43)"/>
<path d="M0 0 C1.79240663 0.11389875 3.58394835 0.24147687 5.375 0.375 C6.87160156 0.47941406 6.87160156 0.47941406 8.3984375 0.5859375 C11 1 11 1 13 3 C10.03 3 7.06 3 4 3 C4 3.66 4 4.32 4 5 C3.01 4.67 2.02 4.34 1 4 C0.3125 1.9375 0.3125 1.9375 0 0 Z " fill="#C19FE7" transform="translate(48,95)"/>
<path d="M0 0 C0.87785156 0.09023437 1.75570312 0.18046875 2.66015625 0.2734375 C4.9375 0.625 4.9375 0.625 6.9375 1.625 C6.9375 2.615 6.9375 3.605 6.9375 4.625 C6.2775 4.625 5.6175 4.625 4.9375 4.625 C4.9375 3.965 4.9375 3.305 4.9375 2.625 C-0.0125 2.625 -4.9625 2.625 -10.0625 2.625 C-6.83325922 -0.60424078 -4.30638296 -0.46932598 0 0 Z " fill="#332061" transform="translate(59.0625,91.375)"/>
<path d="M0 0 C2 3 2 3 2.4375 5 C3.11043159 7.39264564 4.14905806 8.39048527 6 10 C4 11 4 11 0.875 10.0625 C-0.07375 9.711875 -1.0225 9.36125 -2 9 C-1.34 6.03 -0.68 3.06 0 0 Z " fill="#5A368E" transform="translate(100,70)"/>
<path d="M0 0 C1.32 0 2.64 0 4 0 C4 2.31 4 4.62 4 7 C1.03 7 -1.94 7 -5 7 C-4.175 6.401875 -3.35 5.80375 -2.5 5.1875 C-1.2625 4.1046875 -1.2625 4.1046875 0 3 C0 2.01 0 1.02 0 0 Z " fill="#0D192F" transform="translate(75,66)"/>
<path d="M0 0 C0.33 0.99 0.66 1.98 1 3 C-0.9626228 5.04795423 -2.4277307 5.94976638 -5.26953125 6.19921875 C-7.51954383 6.18858877 -9.75385562 6.12958525 -12 6 C-12.33 5.01 -12.66 4.02 -13 3 C-11.783125 3.061875 -10.56625 3.12375 -9.3125 3.1875 C-5.42249954 3.20822824 -3.16367751 2.37275814 0 0 Z " fill="#3E296B" transform="translate(32,59)"/>
<path d="M0 0 C0.33 0.99 0.66 1.98 1 3 C-0.4375 5.1875 -0.4375 5.1875 -2 7 C-1.01 6.67 -0.02 6.34 1 6 C3.62843884 7.00499132 4.72403685 7.44807371 6 10 C2.37 9.67 -1.26 9.34 -5 9 C-3.47426795 5.18566987 -2.47253678 3.03447696 0 0 Z " fill="#603895" transform="translate(70,13)"/>
<path d="M0 0 C-0.25 1.875 -0.25 1.875 -1 4 C-3.0625 5.25 -3.0625 5.25 -5 6 C-5 5.34 -5 4.68 -5 4 C-5.66 4 -6.32 4 -7 4 C-6.6875 2.0625 -6.6875 2.0625 -6 0 C-3 -1 -3 -1 0 0 Z " fill="#2B205B" transform="translate(28,49)"/>
<path d="M0 0 C3.43595166 1.52708963 6.11912454 3.59927045 9 6 C8.2575 5.979375 7.515 5.95875 6.75 5.9375 C4.29537721 5.99328688 2.33890739 6.3069904 0 7 C0 4.69 0 2.38 0 0 Z " fill="#263244" transform="translate(81,79)"/>
<path d="M0 0 C0.33 0 0.66 0 1 0 C1 2.64 1 5.28 1 8 C1.5775 8.061875 2.155 8.12375 2.75 8.1875 C5.88690987 9.32027301 7.09167504 11.34197595 9 14 C8.01 14.495 8.01 14.495 7 15 C5 13.625 5 13.625 3 12 C3 11.34 3 10.68 3 10 C2.01 9.67 1.02 9.34 0 9 C-1.125 3.375 -1.125 3.375 0 0 Z " fill="#352564" transform="translate(10,48)"/>
<path d="M0 0 C2 3 2 3 1.625 5.6875 C1.41875 6.450625 1.2125 7.21375 1 8 C1.99 8.33 2.98 8.66 4 9 C4 9.66 4 10.32 4 11 C2.02 10.34 0.04 9.68 -2 9 C-1.34 6.03 -0.68 3.06 0 0 Z " fill="#B693DF" transform="translate(97,71)"/>
<path d="M0 0 C4.95 0.33 9.9 0.66 15 1 C11.29598872 3.46934085 8.29412135 3.44928433 4 3 C1.5 2 1.5 2 0 1 C0 0.67 0 0.34 0 0 Z " fill="#4E327E" transform="translate(70,25)"/>
<path d="M0 0 C2.3828125 0.2421875 2.3828125 0.2421875 5.125 0.875 C6.03507812 1.07867187 6.94515625 1.28234375 7.8828125 1.4921875 C8.58148438 1.65976563 9.28015625 1.82734375 10 2 C10 2.99 10 3.98 10 5 C4.06 3.515 4.06 3.515 -2 2 C-1.34 1.34 -0.68 0.68 0 0 Z " fill="#B994E5" transform="translate(108,63)"/>
<path d="M0 0 C1.13732426 3.40401948 0.83989957 5.77456664 0.0625 9.25 C-0.13214844 10.14203125 -0.32679687 11.0340625 -0.52734375 11.953125 C-0.68332031 12.62859375 -0.83929688 13.3040625 -1 14 C-1.99 14.33 -2.98 14.66 -4 15 C-3.52229477 13.06213915 -3.04278429 11.12472326 -2.5625 9.1875 C-2.29566406 8.10855469 -2.02882813 7.02960938 -1.75390625 5.91796875 C-1.23922588 3.9259157 -0.65062825 1.95188476 0 0 Z " fill="#523283" transform="translate(121,67)"/>
<path d="M0 0 C0.99 0.33 1.98 0.66 3 1 C2.57847656 1.48210938 2.15695313 1.96421875 1.72265625 2.4609375 C1.17480469 3.09257813 0.62695312 3.72421875 0.0625 4.375 C-0.48277344 5.00148438 -1.02804688 5.62796875 -1.58984375 6.2734375 C-3.06958624 7.95632334 -3.06958624 7.95632334 -4 10 C-4.99 10 -5.98 10 -7 10 C-7 9.34 -7 8.68 -7 8 C-6.34 7.67 -5.68 7.34 -5 7 C-4.67 6.01 -4.34 5.02 -4 4 C-2.70644173 2.62804426 -1.37701298 1.28817344 0 0 Z " fill="#0B111E" transform="translate(15,0)"/>
<path d="M0 0 C5.94 1.485 5.94 1.485 12 3 C8 5 8 5 6 4.75 C3.91235527 3.96713323 1.96470761 3.05252193 0 2 C0 1.34 0 0.68 0 0 Z " fill="#4A2D78" transform="translate(101,82)"/>
<path d="M0 0 C0.33 0.66 0.66 1.32 1 2 C-2.22791555 4.1519437 -3.28400809 4.20086443 -7 4 C-7.33 3.01 -7.66 2.02 -8 1 C-5.36 0.67 -2.72 0.34 0 0 Z " fill="#422477" transform="translate(113,77)"/>
<path d="M0 0 C1.32 0.33 2.64 0.66 4 1 C4 3.64 4 6.28 4 9 C3.01 8.67 2.02 8.34 1 8 C0.67 5.36 0.34 2.72 0 0 Z " fill="#3D2373" transform="translate(101,69)"/>
<path d="M0 0 C2.375 0.6875 2.375 0.6875 5 2 C6.3125 4.625 6.3125 4.625 7 7 C4 7 4 7 2.61328125 5.6875 C1.40885417 4.125 0.20442708 2.5625 -1 1 C-0.67 0.67 -0.34 0.34 0 0 Z " fill="#BA99E6" transform="translate(28,42)"/>
<path d="M0 0 C0.99 0 1.98 0 3 0 C4.29243536 4.1196377 5.26252625 7.66831683 5 12 C3.20931427 9.3139714 2.33944209 7.3373411 1.375 4.3125 C1.11460938 3.50425781 0.85421875 2.69601563 0.5859375 1.86328125 C0.39257812 1.24839844 0.19921875 0.63351562 0 0 Z " fill="#4F3080" transform="translate(80,12)"/>
<path d="M0 0 C0.99 0 1.98 0 3 0 C4.6875 2.5 4.6875 2.5 6 5 C4.02 5.99 4.02 5.99 2 7 C1.34 4.69 0.68 2.38 0 0 Z " fill="#5E3495" transform="translate(55,106)"/>
<path d="M0 0 C0.66 1.32 1.32 2.64 2 4 C2.66 4 3.32 4 4 4 C4.33 5.65 4.66 7.3 5 9 C2 8 2 8 0 5 C-0.125 2.3125 -0.125 2.3125 0 0 Z " fill="#271F54" transform="translate(48,108)"/>
<path d="M0 0 C2.64 0 5.28 0 8 0 C8 0.66 8 1.32 8 2 C2.25 3.125 2.25 3.125 0 2 C0 1.34 0 0.68 0 0 Z " fill="#1F1E48" transform="translate(72,0)"/>
<path d="M0 0 C7.50769231 -0.36923077 7.50769231 -0.36923077 10 1.5 C10.495 2.2425 10.495 2.2425 11 3 C9.741875 2.87625 8.48375 2.7525 7.1875 2.625 C6.12595703 2.52058594 6.12595703 2.52058594 5.04296875 2.4140625 C3 2 3 2 0 0 Z " fill="#563887" transform="translate(104,61)"/>
<path d="M0 0 C2.72869407 0.03287583 5.2966618 0.56397771 8 1 C8 1.99 8 2.98 8 4 C4.7 3.34 1.4 2.68 -2 2 C-1.34 1.34 -0.68 0.68 0 0 Z " fill="#4B3278" transform="translate(24,39)"/>
<path d="M0 0 C-1.55500981 3.81684226 -4.03595495 6.19195732 -7 9 C-6.53149863 4.78348764 -4.94559315 0 0 0 Z " fill="#4B3176" transform="translate(74,4)"/>
<path d="M0 0 C2.6855594 2.6855594 3.06049974 5.37621328 4 9 C3.01 8.67 2.02 8.34 1 8 C-0.25 5.0625 -0.25 5.0625 -1 2 C-0.67 1.34 -0.34 0.68 0 0 Z " fill="#503181" transform="translate(50,102)"/>
<path d="M0 0 C1.32 0 2.64 0 4 0 C3.34 1.65 2.68 3.3 2 5 C1.01 5 0.02 5 -1 5 C-0.67 3.35 -0.34 1.7 0 0 Z " fill="#522D86" transform="translate(102,64)"/>
<path d="M0 0 C0.66 0 1.32 0 2 0 C1.60196439 2.88575819 1.20990931 3.82189513 -1.0625 5.75 C-1.701875 6.1625 -2.34125 6.575 -3 7 C-2.25 2.25 -2.25 2.25 0 0 Z " fill="#342264" transform="translate(65,9)"/>
</svg>
